<svg xmlns="http://www.w3.org/2000/svg" xmlns:xlink="http://www.w3.org/1999/xlink" version="1.1" viewBox="8.1 7.83 49.57 49.57"><title>Group 9</title><defs><filter id="filter-1" width="159.7%" height="159.3%" x="-29.8%" y="-29.6%" filterUnits="objectBoundingBox"><feGaussianBlur in="SourceGraphic" stdDeviation="4"/></filter></defs><g id="Earn-Interest-Designs" fill="none" fill-rule="evenodd" stroke="none" stroke-width="1"><g id="Cosmos---Pending-Unstake" transform="translate(-69.000000, -628.000000)"><g id="Group-2" transform="translate(67.441895, 625.000000)"><g id="Group-9" transform="translate(8.000000, 9.210449)"><g id="Group-6" transform="translate(0.648620, 0.900605)"><g id="Group-5" transform="translate(0.329894, 0.332176)"><g id="Glow" fill="#F8E71C" fill-opacity=".95" opacity=".343" transform="translate(5.034906, 4.592661)"><ellipse id="Shape" cx="20.282" cy="20.462" filter="url(#filter-1)" opacity=".4" rx="20.11" ry="20.249"/></g><g id="Illustration" fill-rule="nonzero" transform="translate(0.561665, 0.261395)"><g id="Opacity" fill="#F8E71C" opacity=".039"><path id="Shape" d="M24.9075,49.6773895 C11.2274678,49.6773895 0.137610497,38.5875322 0.137610497,24.9075 C0.137610497,11.2274678 11.2274678,0.137610497 24.9075,0.137610497 C38.5875322,0.137610497 49.6773895,11.2274678 49.6773895,24.9075 C49.6773895,38.5875322 38.5875322,49.6773895 24.9075,49.6773895 Z M24.9075,49.4021685 C38.4355319,49.4021685 49.4021685,38.4355319 49.4021685,24.9075 C49.4021685,11.3794681 38.4355319,0.412831492 24.9075,0.412831492 C11.3794681,0.412831492 0.412831492,11.3794681 0.412831492,24.9075 C0.412831492,38.4355319 11.3794681,49.4021685 24.9075,49.4021685 Z"/></g><g id="Opacity" fill="#F8E71C" opacity=".123" transform="translate(4.128315, 4.128315)"><path id="Shape" d="M20.7791851,41.4207597 C9.37915823,41.4207597 0.137610497,32.1792119 0.137610497,20.7791851 C0.137610497,9.37915823 9.37915823,0.137610497 20.7791851,0.137610497 C32.1792119,0.137610497 41.4207597,9.37915823 41.4207597,20.7791851 C41.4207597,32.1792119 32.1792119,41.4207597 20.7791851,41.4207597 Z M20.7791851,41.1455387 C32.0272116,41.1455387 41.1455387,32.0272116 41.1455387,20.7791851 C41.1455387,9.53115859 32.0272116,0.412831492 20.7791851,0.412831492 C9.53115859,0.412831492 0.412831492,9.53115859 0.412831492,20.7791851 C0.412831492,32.0272116 9.53115859,41.1455387 20.7791851,41.1455387 Z"/></g><path id="Shape" fill="#FFF24A" d="M24.9075,41.1455387 C15.9394789,41.1455387 8.66946133,33.8755211 8.66946133,24.9075 C8.66946133,15.9394789 15.9394789,8.66946133 24.9075,8.66946133 C33.8755211,8.66946133 41.1455387,15.9394789 41.1455387,24.9075 C41.1455387,33.8755211 33.8755211,41.1455387 24.9075,41.1455387 Z M24.9075,40.8703177 C33.7235208,40.8703177 40.8703177,33.7235208 40.8703177,24.9075 C40.8703177,16.0914792 33.7235208,8.94468232 24.9075,8.94468232 C16.0914792,8.94468232 8.94468232,16.0914792 8.94468232,24.9075 C8.94468232,33.7235208 16.0914792,40.8703177 24.9075,40.8703177 Z"/></g></g></g><circle id="Oval" cx="26.5" cy="26.414" r="16.062" fill="#FFF24A"/><circle id="Oval" cx="19.697" cy="26.414" r="2.197" fill="#111C31"/><circle id="Oval" cx="26.697" cy="26.414" r="2.197" fill="#111C31"/><circle id="Oval" cx="33.697" cy="26.414" r="2.197" fill="#111C31"/></g></g></g></g></svg>